<?xml version="1.0" encoding="utf-8"?>
<!-- Generator: Adobe Illustrator 23.0.4, SVG Export Plug-In . SVG Version: 6.00 Build 0)  -->
<svg version="1.1" id="레이어_1" xmlns="http://www.w3.org/2000/svg" xmlns:xlink="http://www.w3.org/1999/xlink" x="0px"
	 y="0px" viewBox="0 0 91.29 23.77" style="enable-background:new 0 0 91.29 23.77;" xml:space="preserve">
<style type="text/css">
	.st0{fill-rule:evenodd;clip-rule:evenodd;fill:#36E2E2;}
	.st1{fill-rule:evenodd;clip-rule:evenodd;fill:#FEFEFE;}
</style>
<g>
	<path class="st0" d="M16.13,13.97l6.22,1.88c-0.42,1.75-1.08,3.2-1.98,4.37c-0.9,1.17-2.02,2.05-3.35,2.65
		c-1.33,0.6-3.03,0.89-5.09,0.89c-2.5,0-4.54-0.36-6.12-1.09c-1.58-0.73-2.95-2-4.1-3.83C0.57,17.02,0,14.68,0,11.83
		c0-3.8,1.01-6.72,3.03-8.77C5.06,1.02,7.92,0,11.62,0c2.9,0,5.17,0.58,6.83,1.76c1.66,1.17,2.89,2.97,3.69,5.39l-6.27,1.39
		c-0.22-0.7-0.45-1.21-0.69-1.54c-0.4-0.54-0.88-0.96-1.46-1.25c-0.58-0.29-1.22-0.44-1.93-0.44c-1.61,0-2.84,0.65-3.7,1.94
		c-0.65,0.96-0.97,2.47-0.97,4.53c0,2.55,0.39,4.29,1.16,5.24c0.77,0.94,1.86,1.42,3.26,1.42c1.36,0,2.39-0.38,3.08-1.15
		C15.31,16.53,15.82,15.42,16.13,13.97"/>
	<polygon class="st0" points="25.8,0.39 28,0 33,6 32.91,17.71 43.99,17.71 43.99,23.37 39.47,23.37 30.89,23.37 25.8,18.39 	"/>
	<path class="st0" d="M61.35,0.39h7.09v13.69c0,1.36-0.21,2.64-0.64,3.85c-0.42,1.21-1.09,2.26-1.99,3.17
		c-0.9,0.9-1.85,1.54-2.85,1.9c-1.38,0.51-3.04,0.77-4.97,0.77c-1.12,0-2.34-0.08-3.66-0.23c-1.32-0.16-2.43-0.47-3.32-0.93
		c-0.89-0.47-1.7-1.12-2.44-1.98c-0.74-0.86-1.24-1.74-1.51-2.65c-0.44-1.46-0.66-2.76-0.66-3.89V0.39h7.09v14.02
		c0,1.25,0.35,2.23,1.04,2.94c0.69,0.7,1.66,1.06,2.89,1.06c1.22,0,2.18-0.35,2.88-1.04c0.69-0.69,1.04-1.68,1.04-2.95V0.39z"/>
	<polygon class="st1" points="28,0 28,6 33,6 	"/>
	<polygon class="st0" points="73.12,0.39 85.59,0.39 91.08,0.39 91.08,5.3 80.24,5.3 80.24,8.95 91.29,8.95 91.29,13.64 
		80.24,13.64 80.24,18.17 91.24,18.17 91.24,23.37 78.91,23.37 73.12,17.55 	"/>
</g>
</svg>
