<?xml version="1.0" encoding="utf-8"?>
<!-- Generator: Adobe Illustrator 23.0.4, SVG Export Plug-In . SVG Version: 6.00 Build 0)  -->
<svg version="1.1" id="레이어_1" xmlns="http://www.w3.org/2000/svg" xmlns:xlink="http://www.w3.org/1999/xlink" x="0px"
	 y="0px" viewBox="0 0 31.15 31.15" style="enable-background:new 0 0 31.15 31.15;" xml:space="preserve">
<style type="text/css">
	.st0{fill:#36E2E2;}
</style>
<g>
	<g>
		<path class="st0" d="M15.57,31.07c-8.55,0-15.5-6.95-15.5-15.5s6.95-15.5,15.5-15.5s15.5,6.95,15.5,15.5S24.12,31.07,15.57,31.07z
			 M15.57,3.07c-6.89,0-12.5,5.61-12.5,12.5s5.61,12.5,12.5,12.5s12.5-5.61,12.5-12.5S22.47,3.07,15.57,3.07z"/>
		<path class="st0" d="M22.57,18.07h-8.5v-8.5c0-0.83,0.67-1.5,1.5-1.5c0.83,0,1.5,0.67,1.5,1.5v5.5h5.5c0.83,0,1.5,0.67,1.5,1.5
			C24.07,17.4,23.4,18.07,22.57,18.07z"/>
	</g>
</g>
</svg>
